<svg width="787" height="659" viewBox="0 0 787 659" fill="none" xmlns="http://www.w3.org/2000/svg">
<path d="M-87 43.1526L92.5 -63L272 43.1526V245.887L92.5 359L-87 245.887V43.1526Z" fill="#3376AB" fill-opacity="0.2"/>
<path d="M74 412.328L164 359L254 412.328V514.175L164 571L74 514.175V412.328Z" fill="#3376AB" fill-opacity="0.2"/>
<path d="M451 570.5L500.5 541.069L550 570.5V626.708L500.5 658.069L451 626.708V570.5Z" fill="#3376AB" fill-opacity="0.2"/>
<path d="M688 512.431L737.5 483L787 512.431V568.639L737.5 600L688 568.639V512.431Z" fill="#3376AB" fill-opacity="0.2"/>
<path d="M291 298.278L367 253L443 298.278V384.753L367 433L291 384.753V298.278Z" fill="#3376AB" fill-opacity="0.2"/>
<path d="M451 151.48L514.5 114L578 151.48V223.062L514.5 263L451 223.062V151.48Z" fill="#3376AB" fill-opacity="0.2"/>
<path d="M483 420.499L551.5 380L620 420.499V497.845L551.5 541L483 497.845V420.499Z" fill="#3376AB" fill-opacity="0.2"/>
</svg>
