<svg width="356" height="1294" viewBox="0 0 356 1294" fill="none" xmlns="http://www.w3.org/2000/svg">
<path fill-rule="evenodd" clip-rule="evenodd" d="M206.247 1232.73L206.247 1267.48L176.148 1284.86L146.049 1267.48L146.049 1232.73L176.148 1215.35L206.247 1232.73Z" fill="#21A6E3"/>
<line x1="151" y1="1234.16" y2="1234.16" stroke="#21A6E3" stroke-width="3"/>
<path fill-rule="evenodd" clip-rule="evenodd" d="M206.247 638.954L206.247 673.709L176.148 691.087L146.049 673.709L146.049 638.954L176.148 621.577L206.247 638.954Z" fill="#21A6E3"/>
<line x1="151" y1="640.388" y2="640.388" stroke="#21A6E3" stroke-width="3"/>
<path fill-rule="evenodd" clip-rule="evenodd" d="M206.247 45.0663L206.247 79.8215L176.148 97.199L146.049 79.8215L146.049 45.0663L176.148 27.6888L206.247 45.0663Z" fill="#21A6E3"/>
<line x1="151" y1="46.5" y2="46.5" stroke="#21A6E3" stroke-width="3"/>
<path fill-rule="evenodd" clip-rule="evenodd" d="M206.247 342.066L206.247 376.821L176.148 394.199L146.049 376.821L146.049 342.066L176.148 324.689L206.247 342.066Z" fill="#21A6E3"/>
<line x1="356" y1="343.5" x2="205" y2="343.5" stroke="#21A6E3" stroke-width="3"/>
<path fill-rule="evenodd" clip-rule="evenodd" d="M206.247 935.842L206.247 970.597L176.148 987.975L146.049 970.597L146.049 935.842L176.148 918.464L206.247 935.842Z" fill="#21A6E3"/>
<line x1="356" y1="937.276" x2="205" y2="937.276" stroke="#21A6E3" stroke-width="3"/>
<path d="M176 0L176 1272" stroke="#21A6E3" stroke-width="6"/>
</svg>
