<svg width="356" height="1490" viewBox="0 0 356 1490" fill="none" xmlns="http://www.w3.org/2000/svg">
					<path fill-rule="evenodd" clip-rule="evenodd" d="M206.247 1254.51L206.247 1289.26L176.148 1306.64L146.049 1289.26L146.049 1254.51L176.148 1237.13L206.247 1254.51Z" fill="#21A6E3"/>
					<line x1="151" y1="1255.94" y2="1255.94" stroke="#21A6E3" stroke-width="3"/>
					<path fill-rule="evenodd" clip-rule="evenodd" d="M206.247 653.287L206.247 688.042L176.148 705.42L146.049 688.042L146.049 653.287L176.148 635.91L206.247 653.287Z" fill="#21A6E3"/>
					<line x1="151" y1="654.721" y2="654.721" stroke="#21A6E3" stroke-width="3"/>
					<path fill-rule="evenodd" clip-rule="evenodd" d="M206.247 52.0663L206.247 86.8215L176.148 104.199L146.049 86.8215L146.049 52.0663L176.148 34.6888L206.247 52.0663Z" fill="#21A6E3"/>
					<line x1="151" y1="53.5" y2="53.5" stroke="#21A6E3" stroke-width="3"/>
					<path fill-rule="evenodd" clip-rule="evenodd" d="M206.247 341.066L206.247 375.821L176.148 393.199L146.049 375.821L146.049 341.066L176.148 323.689L206.247 341.066Z" fill="#21A6E3"/>
					<line x1="356" y1="342.5" x2="205" y2="342.5" stroke="#21A6E3" stroke-width="3"/>
					<path fill-rule="evenodd" clip-rule="evenodd" d="M206.247 941.066L206.247 975.821L176.148 993.199L146.049 975.821L146.049 941.066L176.148 923.689L206.247 941.066Z" fill="#21A6E3"/>
					<line x1="356" y1="942.5" x2="205" y2="942.5" stroke="#21A6E3" stroke-width="3"/>
					<path d="M176 0L176 1490" stroke="#21A6E3" stroke-width="6"/>
</svg>