<svg width="72" height="84" viewBox="0 0 72 84" fill="none" xmlns="http://www.w3.org/2000/svg">
<path d="M0 21.0112L36 0.0163269L72 21.0112V61.1081L36 83.4797L0 61.1081V21.0112Z" fill="#00629B"/>
<path d="M42.5714 46.2894C41.0575 46.2894 39.666 46.8442 38.5676 47.7721L31.7047 43.2269C31.908 42.2527 31.908 41.2432 31.7047 40.2691L38.5676 35.7238C39.666 36.6518 41.0575 37.2066 42.5714 37.2066C46.1218 37.2066 49 34.1567 49 30.3945C49 26.6323 46.1218 23.5824 42.5714 23.5824C39.021 23.5824 36.1429 26.6323 36.1429 30.3945C36.1429 30.9024 36.1958 31.3972 36.2953 31.8734L29.4324 36.4186C28.334 35.4907 26.9425 34.9359 25.4286 34.9359C21.8782 34.9359 19 37.9858 19 41.748C19 45.5102 21.8782 48.5601 25.4286 48.5601C26.9425 48.5601 28.334 48.0053 29.4324 47.0774L36.2953 51.6226C36.1938 52.1082 36.1427 52.6041 36.1429 53.1015C36.1429 56.8637 39.021 59.9136 42.5714 59.9136C46.1218 59.9136 49 56.8637 49 53.1015C49 49.3393 46.1218 46.2894 42.5714 46.2894Z" fill="white"/>
</svg>
