<svg viewBox="0 0 451 436" fill="none" xmlns="http://www.w3.org/2000/svg">
  <path d="M181.651 150.447H265.132L306.872 217.647L265.132 284.847H181.651L139.911 217.647L181.651 150.447Z" fill="white"/>
  <path d="M182.584 300.679H266.065L307.805 368.34L266.065 436H182.584L140.844 368.34L182.584 300.679Z" fill="white"/>
  <path d="M321.74 74H405.221L446.961 141.66L405.221 209.321H321.74L280 141.66L321.74 74Z" fill="white"/>
  <path d="M42.6729 227.505H126.153L167.894 295.165L126.153 362.826H42.6729L0.932739 295.165L42.6729 227.505Z" fill="white"/>
  <path d="M181.74 0H265.221L306.961 67.6604L265.221 135.321H181.74L140 67.6604L181.74 0Z" fill="white"/>
  <path d="M321.563 221.981H405.043L446.783 289.642L405.043 357.302H321.563L279.823 289.642L321.563 221.981Z" fill="white"/>
  <path d="M41.7402 77.3334H125.221L166.961 144.957L125.221 212.581H41.7402L0 144.957L41.7402 77.3334Z" fill="white"/>
  <defs>
    <filter id="filter0_d" x="276" y="74" width="174.961" height="143.321" filterUnits="userSpaceOnUse" color-interpolation-filters="sRGB">
      <feFlood flood-opacity="0" result="BackgroundImageFix"/>
      <feColorMatrix in="SourceAlpha" type="matrix" values="0 0 0 0 0 0 0 0 0 0 0 0 0 0 0 0 0 0 127 0"/>
      <feOffset dy="4"/>
      <feGaussianBlur stdDeviation="2"/>
      <feColorMatrix type="matrix" values="0 0 0 0 0 0 0 0 0 0 0 0 0 0 0 0 0 0 0.25 0"/>
      <feBlend mode="normal" in2="BackgroundImageFix" result="effect1_dropShadow"/>
      <feBlend mode="normal" in="SourceGraphic" in2="effect1_dropShadow" result="shape"/>
    </filter>
  </defs>
</svg>
