<svg width="1440" height="311" viewBox="0 0 1440 311" fill="none" xmlns="http://www.w3.org/2000/svg">
<path d="M1050.4 0.0012207L1107.34 0.0012207L1135.81 49.9971L1107.34 99.993H1050.4L1021.93 49.9971L1050.4 0.0012207Z" fill="#50E1FE" fill-opacity="0.8"/>
<path d="M1230.39 0.0012207L1287.33 0.0012207L1315.8 49.9971L1287.33 99.993H1230.39L1201.92 49.9971L1230.39 0.0012207Z" fill="#DDF3FE"/>
<path d="M330.448 0.0012207L387.388 0.0012207L415.857 49.9971L387.388 99.993H330.448L301.978 49.9971L330.448 0.0012207Z" fill="#0072A6" fill-opacity="0.6"/>
<path d="M870.415 0.0012207L927.354 0.0012207L955.824 49.9971L927.354 99.993H870.415L841.945 49.9971L870.415 0.0012207Z" fill="#0072A6" fill-opacity="0.6"/>
<path d="M420.442 53.8794L477.382 53.8794L505.852 103.875L477.382 153.871H420.442L391.972 103.875L420.442 53.8794Z" fill="#DDF3FE"/>
<path d="M510.437 0.0012207L567.377 0.0012207L595.846 49.9971L567.377 99.993H510.437L481.967 49.9971L510.437 0.0012207Z" fill="#50E1FE" fill-opacity="0.8"/>
<path d="M150.459 0L207.399 0L235.869 49.9959L207.399 99.9918H150.459L121.989 49.9959L150.459 0Z" fill="#DDF3FE"/>
<path d="M657.371 258.106H600.431L571.961 208.111L600.431 158.115H657.371L685.841 208.111L657.371 258.106Z" fill="#DDF3FE"/>
<path d="M117.404 258.106H60.4644L31.9945 208.111L60.4644 158.115H117.404L145.874 208.111L117.404 258.106Z" fill="#DDF3FE"/>
<path d="M477.382 259.596H420.442L391.972 209.6L420.442 159.604H477.382L505.852 209.6L477.382 259.596Z" fill="#50E1FE" fill-opacity="0.8"/>
<path d="M297.393 152.378H240.453L211.983 102.382L240.453 52.3864L297.393 52.3864L325.863 102.382L297.393 152.378Z" fill="#50E1FE" fill-opacity="0.6"/>
<path d="M297.393 258.103H240.453L211.983 208.107L240.453 158.111H297.393L325.863 208.107L297.393 258.103Z" fill="#0072A6" fill-opacity="0.6"/>
<path d="M1017.35 149.242H960.409L931.939 99.2463L960.409 49.2504L1017.35 49.2504L1045.82 99.2463L1017.35 149.242Z" fill="#DDF3FE"/>
<path d="M1018.18 254.966H961.237L932.767 204.97L961.237 154.975H1018.18L1046.65 204.97L1018.18 254.966Z" fill="#50E1FE" fill-opacity="0.8"/>
<path d="M781.251 156.113L838.189 156.587L866.242 206.818L837.357 256.575L780.419 256.101L752.366 205.87L781.251 156.113Z" fill="#0072A6" fill-opacity="0.6"/>
<path d="M837.36 150.144H780.42L751.95 100.148L780.42 50.152L837.36 50.152L865.83 100.148L837.36 150.144Z" fill="#50E1FE" fill-opacity="0.8"/>
<path d="M747.365 100.471L690.426 100.471L661.956 50.4748L690.426 0.4789L747.365 0.4789L775.835 50.4748L747.365 100.471Z" fill="#DDF3FE"/>
<path d="M1051.23 210.667H1108.17L1136.64 260.663L1108.17 310.659H1051.23L1022.76 260.663L1051.23 210.667Z" fill="#0072A6" fill-opacity="0.6"/>
<path d="M1232.05 210.667H1288.99L1317.46 260.663L1288.99 310.659H1232.05L1203.58 260.663L1232.05 210.667Z" fill="#50E1FE" fill-opacity="0.8"/>
<path d="M330.448 210.667H387.388L415.857 260.663L387.388 310.659H330.448L301.978 260.663L330.448 210.667Z" fill="#DDF3FE"/>
<path d="M871.243 210.667H928.182L956.652 260.663L928.182 310.659H871.243L842.773 260.663L871.243 210.667Z" fill="#DDF3FE"/>
<path d="M510.437 210.667H567.377L595.846 260.663L567.377 310.659H510.437L481.967 260.663L510.437 210.667Z" fill="#0072A6" fill-opacity="0.6"/>
<path d="M150.459 210.667H207.399L235.869 260.663L207.399 310.659H150.459L121.989 260.663L150.459 210.667Z" fill="#50E1FE" fill-opacity="0.6"/>
<path d="M747.365 310.659H690.426L661.956 260.663L690.426 210.667H747.365L775.835 260.663L747.365 310.659Z" fill="#50E1FE" fill-opacity="0.8"/>
<path d="M657.371 152.382H600.431L571.961 102.386L600.431 52.39L657.371 52.39L685.841 102.386L657.371 152.382Z" fill="#0072A6" fill-opacity="0.6"/>
<path d="M117.404 152.382H60.4644L31.9945 102.386L60.4644 52.39L117.404 52.39L145.874 102.386L117.404 152.382Z" fill="#0072A6" fill-opacity="0.6"/>
<path d="M1142.06 154.805L1198.99 155.279L1227.05 205.51L1198.16 255.267L1141.23 254.793L1113.17 204.562L1142.06 154.805Z" fill="#DDF3FE"/>
<path d="M1322.87 153.849L1379.81 154.323L1407.86 204.554L1378.98 254.312L1322.04 253.838L1293.99 203.607L1322.87 153.849Z" fill="#4B90AF"/>
<path d="M1197.34 148.835H1140.4L1111.93 98.8395L1140.4 48.8436L1197.34 48.8436L1225.81 98.8395L1197.34 148.835Z" fill="#4B90AF"/>
<path d="M1377.33 147.88H1320.39L1291.92 97.8842L1320.39 47.8883L1377.33 47.8883L1405.8 97.8842L1377.33 147.88Z" fill="#50E1FE" fill-opacity="0.8"/>
<path d="M1410.38 0.0012207L1467.32 0.0012207L1495.79 49.9971L1467.32 99.993H1410.38L1381.91 49.9971L1410.38 0.0012207Z" fill="#4B90AF"/>
<path d="M1412.87 210.667H1469.81L1498.28 260.663L1469.81 310.659H1412.87L1384.4 260.663L1412.87 210.667Z" fill="#66DAF1"/>
<path d="M1411.21 100.077L1468.15 100.551L1496.2 150.782L1467.32 200.539L1410.38 200.066L1382.33 149.835L1411.21 100.077Z" fill="#DDF3FE"/>
<path d="M-29.5301 0.0012207L27.4097 0.0012207L55.8795 49.9971L27.4097 99.993H-29.5301L-58 49.9971L-29.5301 0.0012207Z" fill="#4B90AF"/>
<path d="M-29.5301 210.667H27.4097L55.8795 260.663L27.4097 310.659H-29.5301L-58 260.663L-29.5301 210.667Z" fill="#66DAF1"/>
<path d="M-28.6991 105.962L28.2387 106.436L56.2916 156.667L27.4067 206.424L-29.5311 205.95L-57.584 155.719L-28.6991 105.962Z" fill="#DDF3FE"/>
<path d="M150.086 105.573H207.025L235.495 155.569L207.025 205.565H150.086L121.616 155.569L150.086 105.573Z" fill="#DDF3FE"/>
<path d="M330.657 105.573H387.597L416.066 155.569L387.597 205.565H330.657L302.187 155.569L330.657 105.573Z" fill="#DDF3FE"/>
<path d="M510.273 105.573H567.212L595.682 155.569L567.212 205.565H510.273L481.803 155.569L510.273 105.573Z" fill="#DDF3FE"/>
<path d="M690.844 105.573H747.783L776.253 155.569L747.783 205.565H690.844L662.374 155.569L690.844 105.573Z" fill="#DDF3FE"/>
<path d="M870.46 104.618H927.399L955.869 154.614L927.399 204.61H870.46L841.99 154.614L870.46 104.618Z" fill="#DDF3FE"/>
<path d="M1051.03 103.663H1107.97L1136.44 153.658L1107.97 203.654H1051.03L1022.56 153.658L1051.03 103.663Z" fill="#DDF3FE"/>
<path d="M1230.65 103.663H1287.59L1316.06 153.658L1287.59 203.654H1230.65L1202.18 153.658L1230.65 103.663Z" fill="#DDF3FE"/>
</svg>
