<svg width="14" height="14" viewBox="0 0 14 14" fill="none" xmlns="http://www.w3.org/2000/svg">
<path d="M2.03228 12.9099L4.56372 10.5524C4.67798 10.446 4.74146 10.3017 4.74146 10.1504V9.76499C5.63774 10.4176 6.76509 10.8054 7.99146 10.8054C10.9088 10.8054 13.2727 8.60397 13.2727 5.88706C13.2727 3.17015 10.9088 0.968719 7.99146 0.968719C5.07407 0.968719 2.71021 3.17015 2.71021 5.88706C2.71021 7.02916 3.12661 8.07903 3.82739 8.91373H3.41353C3.25103 8.91373 3.09614 8.97285 2.98188 9.07926L0.450439 11.4367C0.211767 11.659 0.211767 12.0184 0.450439 12.2383L1.16899 12.9075C1.40767 13.1298 1.7936 13.1298 2.03228 12.9099ZM4.74146 5.88706C4.74146 4.2153 6.1938 2.86039 7.99146 2.86039C9.78657 2.86039 11.2415 4.21293 11.2415 5.88706C11.2415 7.55883 9.78911 8.91373 7.99146 8.91373C6.19634 8.91373 4.74146 7.56119 4.74146 5.88706Z" fill="#1E1C1C"/>
</svg>
