<svg width="595" height="1014" viewBox="0 0 595 1014" fill="none" xmlns="http://www.w3.org/2000/svg">
<mask id="mask0" mask-type="alpha" maskUnits="userSpaceOnUse" x="0" y="0" width="595" height="1014">
<rect y="0.395508" width="595" height="1013.49" fill="#C4C4C4"/>
</mask>
<g mask="url(#mask0)">
<path d="M-9.19571 141.667L42.4129 112.248L94.3797 142.279L94.738 201.729L43.1294 231.147L-8.83746 201.116L-9.19571 141.667Z" fill="#50E1FE"/>
<path d="M-62.1957 408.059L-10.5871 378.641L41.3797 408.672L41.738 468.122L-9.87062 497.54L-61.8375 467.509L-62.1957 408.059Z" fill="#50E1FE"/>
<path d="M-8.19571 680.462L43.4129 651.043L95.3797 681.074L95.738 740.524L44.1294 769.942L-7.83746 739.911L-8.19571 680.462Z" fill="#50E1FE"/>
<path d="M483.168 669.375L541.723 635.998L604.217 676.113L608.157 749.606L549.602 782.984L487.108 742.869L483.168 669.375Z" fill="#50E1FE"/>
<path d="M244.804 900.786L296.413 871.367L348.38 901.399L348.738 960.848L297.129 990.267L245.163 960.235L244.804 900.786Z" fill="#50E1FE"/>
<path d="M402.804 987.915L454.413 958.496L506.38 988.527L506.738 1047.98L455.129 1077.4L403.163 1047.36L402.804 987.915Z" fill="#50E1FE"/>
<path d="M90.8043 986.914L142.413 957.495L194.38 987.526L194.738 1046.98L143.129 1076.39L91.1625 1046.36L90.8043 986.914Z" fill="#50E1FE"/>
<path d="M503.091 498.267L554.7 468.849L607.523 500.345L608.738 561.259L557.129 590.677L504.306 559.181L503.091 498.267Z" fill="#50E1FE"/>
<path d="M497.804 322.934L549.413 293.516L601.38 323.547L601.738 382.997L550.129 412.415L498.163 382.384L497.804 322.934Z" fill="#50E1FE"/>
<path d="M497.804 145.673L549.413 116.254L601.38 146.285L601.738 205.735L550.129 235.153L498.163 205.122L497.804 145.673Z" fill="#50E1FE"/>
<path d="M499.804 -29.5862L551.413 -59.0047L603.38 -28.9735L603.738 30.476L552.129 59.8945L500.163 29.8634L499.804 -29.5862Z" fill="#50E1FE"/>
<path d="M295.804 -32.5901L347.413 -62.0085L399.38 -31.9774L399.738 27.4721L348.129 56.8906L296.163 26.8595L295.804 -32.5901Z" fill="#50E1FE"/>
<path d="M142.804 56.5408L194.413 27.1223L246.38 57.1534L246.738 116.603L195.129 146.021L143.163 115.99L142.804 56.5408Z" fill="#50E1FE"/>
<path d="M41.8043 52.5349L93.4129 23.1165L145.38 53.1476L145.738 112.597L94.1294 142.016L42.1625 111.984L41.8043 52.5349Z" fill="#50E1FE"/>
<path d="M-12.2864 -33.1167L39.1408 -62.8521L91.2908 -33.1412L92.0137 26.3051L40.5865 56.0404L-11.5636 26.3295L-12.2864 -33.1167Z" fill="#DDF3FE"/>
<path d="M-61.1957 229.797L-9.58713 200.378L42.3797 230.409L42.738 289.859L-8.87062 319.277L-60.8375 289.246L-61.1957 229.797Z" fill="#DDF3FE"/>
<path d="M-8.19571 496.189L43.4129 466.771L95.3797 496.802L95.738 556.251L44.1294 585.67L-7.83746 555.639L-8.19571 496.189Z" fill="#DDF3FE"/>
<path d="M-51.1957 773.598L0.412876 744.18L52.3797 774.211L52.738 833.661L1.12938 863.079L-50.8375 833.048L-51.1957 773.598Z" fill="#DDF3FE"/>
<path d="M38.8043 898.783L90.4129 869.364L142.38 899.396L142.738 958.845L91.1294 988.264L39.1625 958.233L38.8043 898.783Z" fill="#0072A6"/>
<path d="M503.804 870.742L555.413 841.323L607.38 871.355L607.738 930.804L556.129 960.223L504.163 930.192L503.804 870.742Z" fill="#DDF3FE"/>
<path d="M548.804 409.061L600.413 379.643L652.38 409.674L652.738 469.123L601.129 498.542L549.163 468.511L548.804 409.061Z" fill="#DDF3FE"/>
<path d="M448.804 57.5427L500.413 28.1243L552.38 58.1554L552.738 117.605L501.129 147.023L449.163 116.992L448.804 57.5427Z" fill="#DDF3FE"/>
<path d="M346.804 57.5427L398.413 28.1243L450.38 58.1554L450.738 117.605L399.129 147.023L347.163 116.992L346.804 57.5427Z" fill="#DDF3FE"/>
<path d="M193.804 -32.5901L245.413 -62.0085L297.38 -31.9774L297.738 27.4721L246.129 56.8906L194.163 26.8595L193.804 -32.5901Z" fill="#DDF3FE"/>
<path d="M-62.2864 57.0161L-10.8592 27.2808L41.2908 56.9916L42.0137 116.438L-9.41352 146.173L-61.5636 116.462L-62.2864 57.0161Z" fill="#0072A6"/>
<path d="M-9.19571 319.929L42.4129 290.511L94.3797 320.542L94.738 379.992L43.1294 409.41L-8.83746 379.379L-9.19571 319.929Z" fill="#0072A6"/>
<path d="M-52.1957 589.327L-0.58713 559.908L51.3797 589.94L51.738 649.389L0.129378 678.808L-51.8375 648.776L-52.1957 589.327Z" fill="#0072A6"/>
<path d="M-13.3721 869.687L41.6874 838.301L95.3797 867.349L94.0125 927.782L38.953 959.168L-14.7393 930.12L-13.3721 869.687Z" fill="#0072A6"/>
<path d="M140.804 897.782L192.413 868.364L244.38 898.395L244.738 957.844L193.129 987.263L141.163 957.232L140.804 897.782Z" fill="#DDF3FE"/>
<path d="M452.804 898.783L504.413 869.364L556.38 899.396L556.738 958.845L505.129 988.264L453.163 958.233L452.804 898.783Z" fill="#DDF3FE"/>
<path d="M352.337 897.692L405.012 867.666L458.052 898.317L458.417 958.995L405.743 989.021L352.703 958.369L352.337 897.692Z" fill="#0072A6"/>
<path d="M192.337 988.827L245.012 958.801L298.052 989.452L298.417 1050.13L245.743 1080.16L192.703 1049.5L192.337 988.827Z" fill="#0072A6"/>
<path d="M554.337 778.516L607.012 748.49L660.052 779.142L660.417 839.819L607.743 869.845L554.703 839.194L554.337 778.516Z" fill="#0072A6"/>
<path d="M545.804 591.33L597.413 561.911L649.38 591.942L649.738 651.392L598.129 680.811L546.163 650.779L545.804 591.33Z" fill="#0072A6"/>
<path d="M548.804 234.804L600.413 205.386L652.38 235.417L652.738 294.867L601.129 324.285L549.163 294.254L548.804 234.804Z" fill="#0072A6"/>
<path d="M551.804 58.5437L603.413 29.1252L655.38 59.1563L655.738 118.606L604.129 148.024L552.163 117.993L551.804 58.5437Z" fill="#0072A6"/>
<path d="M397.804 -32.5901L449.413 -62.0086L501.38 -31.9774L501.738 27.4721L450.129 56.8906L398.163 26.8595L397.804 -32.5901Z" fill="#0072A6"/>
<path d="M246.804 57.5427L298.413 28.1243L350.38 58.1554L350.738 117.605L299.129 147.023L247.163 116.992L246.804 57.5427Z" fill="#0072A6"/>
<path d="M90.8043 -32.5901L142.413 -62.0086L194.38 -31.9774L194.738 27.4721L143.129 56.8906L91.1625 26.8595L90.8043 -32.5901Z" fill="#0072A6"/>
<path d="M-101.166 986.53L-5.49805 931.996L90.834 987.666L91.4981 1097.87L-4.16984 1152.4L-100.502 1096.73L-101.166 986.53Z" fill="#DDF3FE"/>
<path d="M299.804 988.917L351.413 959.498L403.38 989.529L403.738 1048.98L352.129 1078.4L300.163 1048.37L299.804 988.917Z" fill="#DDF3FE"/>
<path d="M505.834 986.53L601.502 931.996L697.834 987.666L698.498 1097.87L602.83 1152.4L506.498 1096.73L505.834 986.53Z" fill="#0072A6"/>
</g>
<rect x="40" y="58.4814" width="515" height="900.328" fill="#50E1FE" fill-opacity="0.1"/>
</svg>
