<svg width="25" height="27" viewBox="0 0 25 27" fill="none" xmlns="http://www.w3.org/2000/svg">
<path fill-rule="evenodd" clip-rule="evenodd" d="M24.5411 1.43596C24.6866 1.58217 24.802 1.75588 24.8807 1.94711C24.9595 2.13835 25 2.34336 25 2.5504C25 2.75745 24.9595 2.96246 24.8807 3.1537C24.802 3.34493 24.6866 3.51863 24.5411 3.66485L2.67045 25.702C2.37711 25.9975 1.97926 26.1636 1.56442 26.1636C1.14958 26.1636 0.751728 25.9975 0.458391 25.702C0.165054 25.4064 0.000259403 25.0055 0.000259399 24.5875C0.000259396 24.1695 0.165054 23.7686 0.458391 23.4731L22.329 1.43596C22.4741 1.28937 22.6465 1.17306 22.8363 1.09371C23.0261 1.01436 23.2296 0.973511 23.4351 0.973511C23.6405 0.973511 23.844 1.01436 24.0338 1.09371C24.2236 1.17306 24.396 1.28937 24.5411 1.43596Z" fill="#EA9414"/>
<path fill-rule="evenodd" clip-rule="evenodd" d="M0.458952 1.43596C0.31347 1.58217 0.198047 1.75588 0.119292 1.94711C0.0405376 2.13835 0 2.34336 0 2.5504C0 2.75745 0.0405376 2.96246 0.119292 3.1537C0.198047 3.34493 0.31347 3.51863 0.458952 3.66485L22.3296 25.702C22.6229 25.9975 23.0208 26.1636 23.4356 26.1636C23.8505 26.1636 24.2483 25.9975 24.5417 25.702C24.835 25.4064 24.9998 25.0055 24.9998 24.5875C24.9998 24.1695 24.835 23.7686 24.5417 23.4731L2.67101 1.43596C2.5259 1.28937 2.35351 1.17306 2.16372 1.09371C1.97393 1.01436 1.77046 0.973511 1.56498 0.973511C1.3595 0.973511 1.15604 1.01436 0.966245 1.09371C0.776455 1.17306 0.604065 1.28937 0.458952 1.43596Z" fill="#EA9414"/>
</svg>
