<svg width="50" height="59" viewBox="0 0 50 59" fill="none" xmlns="http://www.w3.org/2000/svg">
						<path
							d="M0 17.6877C0 15.923 0.930205 14.289 2.44763 13.3882L22.4476 1.51521C24.021 0.581165 25.979 0.581167 27.5524 1.51522L47.5524 13.3882C49.0698 14.289 50 15.923 50 17.6877V40.432C50 42.1463 49.1217 43.7411 47.673 44.6576L27.673 57.3091C26.0406 58.3417 23.9594 58.3417 22.327 57.3091L2.32702 44.6576C0.878254 43.7411 0 42.1463 0 40.432V17.6877Z"
							fill="#0072A6" />
						<path
							d="M11.8042 38.7442H38.4273C38.9775 38.7442 39.4819 38.4374 39.7378 37.95C39.9936 37.4625 39.9567 36.8727 39.6446 36.4193L26.333 17.1571C25.7813 16.3584 24.4531 16.3584 23.9 17.1571L10.5884 36.4193C10.2749 36.8727 10.2394 37.4625 10.4952 37.95C10.7496 38.4374 11.254 38.7442 11.8042 38.7442Z"
							fill="white" />
					</svg>