<svg width="41" height="41" viewBox="0 0 41 41" fill="none" xmlns="http://www.w3.org/2000/svg">
							<circle cx="20.5" cy="20.5" r="19.5" stroke="#00629B" stroke-width="2" />
							<path
								d="M30.0536 12.875H11.1964C10.7797 12.875 10.38 13.0436 10.0853 13.3436C9.79056 13.6437 9.625 14.0507 9.625 14.475V27.275C9.625 27.6993 9.79056 28.1063 10.0853 28.4064C10.38 28.7064 10.7797 28.875 11.1964 28.875H30.0536C30.4703 28.875 30.87 28.7064 31.1647 28.4064C31.4594 28.1063 31.625 27.6993 31.625 27.275V14.475C31.625 14.0507 31.4594 13.6437 31.1647 13.3436C30.87 13.0436 30.4703 12.875 30.0536 12.875ZM28.325 14.475L20.625 19.899L12.925 14.475H28.325ZM11.1964 27.275V15.203L20.1771 21.531C20.3087 21.6239 20.4649 21.6737 20.625 21.6737C20.7851 21.6737 20.9413 21.6239 21.0729 21.531L30.0536 15.203V27.275H11.1964Z"
								fill="#00629B" />
						</svg>