<svg width="31" height="30" viewBox="0 0 31 30" fill="none" xmlns="http://www.w3.org/2000/svg">
<path d="M25.8333 10L15.5 16.25L5.16667 10V7.5L15.5 13.75L25.8333 7.5V10ZM25.8333 5H5.16667C3.73292 5 2.58333 6.1125 2.58333 7.5V22.5C2.58333 23.163 2.8555 23.7989 3.33997 24.2678C3.82444 24.7366 4.48152 25 5.16667 25H25.8333C26.5185 25 27.1756 24.7366 27.66 24.2678C28.1445 23.7989 28.4167 23.163 28.4167 22.5V7.5C28.4167 6.83696 28.1445 6.20107 27.66 5.73223C27.1756 5.26339 26.5185 5 25.8333 5Z" fill="#FDFDFD"/>
</svg>
