<svg width="28" height="29" viewBox="0 0 28 29" fill="none" xmlns="http://www.w3.org/2000/svg">
<path d="M25.9861 0.288818H1.08275C0.483856 0.288818 0 0.799438 0 1.43146V27.7123C0 28.3444 0.483856 28.855 1.08275 28.855H25.9861C26.585 28.855 27.0688 28.3444 27.0688 27.7123V1.43146C27.0688 0.799438 26.585 0.288818 25.9861 0.288818ZM22.8596 8.62657H20.6975C19.0023 8.62657 18.6741 9.47641 18.6741 10.7262V13.4792H22.7209L22.1931 17.7892H18.6741V28.855H14.4548V17.7927H10.9257V13.4792H14.4548V10.3013C14.4548 6.61265 16.5898 4.60231 19.7095 4.60231C21.2051 4.60231 22.4874 4.72014 22.863 4.77371V8.62657H22.8596Z" fill="white"/>
</svg>
