<svg width="19" height="21" viewBox="0 0 19 21" fill="none"
						xmlns="http://www.w3.org/2000/svg">
						<path fill-rule="evenodd" clip-rule="evenodd"
							d="M17.0624 6.00723L9.18743 1.31246L1.31249 6.00723V14.9925L9.18743 19.6873L17.0624 14.9925V6.00723ZM9.84367 0.17584C9.64415 0.0606453 9.41782 0 9.18743 0C8.95704 0 8.73071 0.0606453 8.53118 0.17584L0.656245 4.87062C0.456726 4.98581 0.291043 5.15149 0.175849 5.35101C0.0606539 5.55052 5.85268e-06 5.77685 0 6.00723V14.9925C5.85268e-06 15.2229 0.0606539 15.4492 0.175849 15.6488C0.291043 15.8483 0.456726 16.014 0.656245 16.1292L8.53118 20.8239C8.73071 20.9391 8.95704 20.9998 9.18743 20.9998C9.41782 20.9998 9.64415 20.9391 9.84367 20.8239L17.7186 16.1292C17.9181 16.014 18.0838 15.8483 18.199 15.6488C18.3142 15.4492 18.3749 15.2229 18.3749 14.9925V6.00723C18.3749 5.77685 18.3142 5.55052 18.199 5.35101C18.0838 5.15149 17.9181 4.98581 17.7186 4.87062L9.84367 0.17584Z"
							fill="#00629B" />
						<path fill-rule="evenodd" clip-rule="evenodd"
							d="M14.3979 10.7416L9.18742 7.52935L3.97693 10.7416V16.8894L9.18742 20.1017L14.3979 16.8894V10.7416ZM9.62163 6.75166C9.48961 6.67284 9.33986 6.63135 9.18742 6.63135C9.03498 6.63135 8.88523 6.67284 8.75321 6.75166L3.54273 9.96389C3.41072 10.0427 3.30109 10.1561 3.22487 10.2926C3.14865 10.4291 3.10852 10.5839 3.10852 10.7416V16.8894C3.10852 17.0471 3.14865 17.2019 3.22487 17.3384C3.30109 17.4749 3.41072 17.5883 3.54273 17.6671L8.75321 20.8793C8.88523 20.9582 9.03498 20.9997 9.18742 20.9997C9.33986 20.9997 9.48961 20.9582 9.62163 20.8793L14.8321 17.6671C14.9641 17.5883 15.0738 17.4749 15.15 17.3384C15.2262 17.2019 15.2663 17.0471 15.2663 16.8894V10.7416C15.2663 10.5839 15.2262 10.4291 15.15 10.2926C15.0738 10.1561 14.9641 10.0427 14.8321 9.96389L9.62163 6.75166Z"
							fill="#00629B" />
						<path fill-rule="evenodd" clip-rule="evenodd"
							d="M12.5032 14.6871L9.18742 12.7103L5.87166 14.6871V18.4704L9.18742 20.4471L12.5032 18.4704V14.6871ZM9.46374 12.2318C9.37973 12.1832 9.28443 12.1577 9.18742 12.1577C9.09042 12.1577 8.99512 12.1832 8.91111 12.2318L5.59534 14.2085C5.51134 14.257 5.44158 14.3268 5.39307 14.4108C5.34457 14.4948 5.31903 14.5901 5.31903 14.6871V18.4704C5.31903 18.5674 5.34457 18.6627 5.39307 18.7467C5.44158 18.8307 5.51134 18.9005 5.59534 18.949L8.91111 20.9257C8.99512 20.9742 9.09042 20.9998 9.18742 20.9998C9.28443 20.9998 9.37973 20.9742 9.46374 20.9257L12.7795 18.949C12.8635 18.9005 12.9333 18.8307 12.9818 18.7467C13.0303 18.6627 13.0558 18.5674 13.0558 18.4704V14.6871C13.0558 14.5901 13.0303 14.4948 12.9818 14.4108C12.9333 14.3268 12.8635 14.257 12.7795 14.2085L9.46374 12.2318Z"
							fill="#00629B" />
					</svg>