<svg width="28" height="29" viewBox="0 0 28 29" fill="none" xmlns="http://www.w3.org/2000/svg">
<path d="M13.9673 9.94133C11.4019 9.94133 9.30835 12.0816 9.30835 14.7043C9.30835 17.327 11.4019 19.4674 13.9673 19.4674C16.5326 19.4674 18.6262 17.327 18.6262 14.7043C18.6262 12.0816 16.5326 9.94133 13.9673 9.94133ZM27.9405 14.7043C27.9405 12.732 27.9579 10.7774 27.8496 8.80864C27.7412 6.52182 27.231 4.49227 25.5953 2.82004C23.9561 1.14423 21.9744 0.626119 19.7376 0.515351C17.8083 0.404584 15.8965 0.42245 13.9707 0.42245C12.0415 0.42245 10.1297 0.404584 8.20392 0.515351C5.96709 0.626119 3.9819 1.1478 2.34622 2.82004C0.707039 4.49584 0.200257 6.52182 0.0919108 8.80864C-0.0164357 10.781 0.00103958 12.7355 0.00103958 14.7043C0.00103958 16.6732 -0.0164357 18.6312 0.0919108 20.6C0.200257 22.8869 0.710534 24.9164 2.34622 26.5887C3.98539 28.2645 5.96709 28.7826 8.20392 28.8933C10.1332 29.0041 12.045 28.9862 13.9707 28.9862C15.9 28.9862 17.8118 29.0041 19.7376 28.8933C21.9744 28.7826 23.9596 28.2609 25.5953 26.5887C27.2345 24.9128 27.7412 22.8869 27.8496 20.6C27.9614 18.6312 27.9405 16.6767 27.9405 14.7043ZM13.9673 22.0329C10.0004 22.0329 6.79891 18.7599 6.79891 14.7043C6.79891 10.6488 10.0004 7.37581 13.9673 7.37581C17.9341 7.37581 21.1356 10.6488 21.1356 14.7043C21.1356 18.7599 17.9341 22.0329 13.9673 22.0329ZM21.4292 8.7872C20.503 8.7872 19.7551 8.02255 19.7551 7.07566C19.7551 6.12878 20.503 5.36412 21.4292 5.36412C22.3554 5.36412 23.1033 6.12878 23.1033 7.07566C23.1036 7.3005 23.0605 7.52319 22.9764 7.73097C22.8924 7.93876 22.7691 8.12755 22.6136 8.28653C22.4581 8.44552 22.2734 8.57158 22.0702 8.65749C21.8669 8.74341 21.6491 8.78749 21.4292 8.7872Z" fill="white"/>
</svg>
