<svg width="41" height="41" viewBox="0 0 41 41" fill="none" xmlns="http://www.w3.org/2000/svg">
							<path
								d="M20.5 10.9688C17.8495 10.9688 17.5192 10.9815 16.4819 11.0254C15.4403 11.0766 14.7358 11.2381 14.1142 11.4795C13.4636 11.7251 12.8743 12.1097 12.3876 12.6063C11.8895 13.092 11.5047 13.6815 11.2607 14.3329C11.0194 14.9546 10.8579 15.6591 10.8067 16.7006C10.7598 17.7385 10.75 18.0682 10.75 20.7188C10.75 23.3693 10.7628 23.6996 10.8067 24.7369C10.8579 25.7754 11.0194 26.4829 11.2607 27.1046C11.5063 27.7552 11.8909 28.3444 12.3876 28.8312C12.8732 29.3292 13.4627 29.714 14.1142 29.958C14.7358 30.1963 15.4434 30.3609 16.4819 30.4121C17.5198 30.459 17.8495 30.4688 20.5 30.4688C23.1505 30.4688 23.4808 30.456 24.5181 30.4121C25.5566 30.3609 26.2642 30.1957 26.8858 29.958C27.5364 29.7124 28.1257 29.3278 28.6124 28.8312C29.1111 28.3461 29.496 27.7564 29.7393 27.1046C29.9776 26.4829 30.1421 25.7754 30.1933 24.7369C30.2402 23.699 30.25 23.3693 30.25 20.7188C30.25 18.0682 30.2372 17.7379 30.1933 16.7006C30.1421 15.6621 29.977 14.9509 29.7393 14.3329C29.4937 13.6823 29.1091 13.0931 28.6124 12.6063C28.1273 12.1076 27.5376 11.7228 26.8858 11.4795C26.2642 11.2381 25.5566 11.0766 24.5181 11.0254C23.4802 10.9785 23.1505 10.9688 20.5 10.9688ZM20.5 12.724C23.103 12.724 23.4138 12.7368 24.4425 12.7806C25.3915 12.8251 25.9083 12.9836 26.2514 13.1177C26.6756 13.2743 27.0595 13.5235 27.3752 13.8472C27.6984 14.1616 27.9467 14.5446 28.1017 14.968C28.2358 15.3111 28.3942 15.8279 28.4387 16.7768C28.4826 17.8056 28.4954 18.117 28.4954 20.7194C28.4954 23.3217 28.4826 23.6331 28.4351 24.6619C28.3839 25.6108 28.2254 26.1276 28.0919 26.4708C27.9073 26.9284 27.7013 27.2484 27.3612 27.5946C27.0444 27.9163 26.6607 28.1643 26.2374 28.321C25.8985 28.4551 25.3744 28.6136 24.4218 28.6581C23.3876 28.702 23.0829 28.7147 20.4732 28.7147C17.8635 28.7147 17.5594 28.702 16.5239 28.6544C15.575 28.6032 15.0515 28.4448 14.7084 28.3113C14.2452 28.1266 13.9277 27.9206 13.5876 27.5806C13.2445 27.2374 13.0263 26.9108 12.8581 26.4567C12.7216 26.1179 12.5656 25.5938 12.515 24.6412C12.4802 23.6191 12.4638 23.3022 12.4638 20.7047C12.4638 18.1085 12.4802 17.7909 12.515 16.7561C12.5656 15.8035 12.7216 15.2806 12.8581 14.9405C13.0263 14.4768 13.2451 14.1598 13.5876 13.8167C13.9271 13.4773 14.2452 13.2578 14.7084 13.086C15.0515 12.9525 15.5622 12.7941 16.5148 12.7465C17.549 12.7093 17.8538 12.6959 20.4598 12.6959L20.5 12.724ZM20.5 15.7145C19.8426 15.7143 19.1916 15.8436 18.5842 16.0951C17.9768 16.3465 17.4249 16.7152 16.9601 17.1801C16.4953 17.6449 16.1266 18.1968 15.8751 18.8042C15.6236 19.4116 15.4943 20.0626 15.4946 20.72C15.4943 21.3774 15.6236 22.0284 15.8751 22.6357C16.1266 23.2431 16.4953 23.795 16.9601 24.2599C17.4249 24.7247 17.9768 25.0934 18.5842 25.3449C19.1916 25.5963 19.8426 25.7256 20.5 25.7254C21.1574 25.7256 21.8084 25.5963 22.4158 25.3449C23.0232 25.0934 23.5751 24.7247 24.0399 24.2599C24.5047 23.795 24.8734 23.2431 25.1249 22.6357C25.3764 22.0284 25.5057 21.3774 25.5054 20.72C25.5057 20.0626 25.3764 19.4116 25.1249 18.8042C24.8734 18.1968 24.5047 17.6449 24.0399 17.1801C23.5751 16.7152 23.0232 16.3465 22.4158 16.0951C21.8084 15.8436 21.1574 15.7143 20.5 15.7145ZM20.5 23.9702C18.7033 23.9702 17.2498 22.5166 17.2498 20.72C17.2498 18.9233 18.7033 17.4698 20.5 17.4698C22.2967 17.4698 23.7502 18.9233 23.7502 20.72C23.7502 22.5166 22.2967 23.9702 20.5 23.9702ZM26.8773 15.5146C26.877 15.8253 26.7534 16.123 26.5336 16.3426C26.3139 16.5621 26.0159 16.6854 25.7053 16.6854C25.5517 16.6854 25.3997 16.6552 25.2578 16.5964C25.1159 16.5376 24.9869 16.4515 24.8783 16.3429C24.7697 16.2343 24.6836 16.1053 24.6248 15.9634C24.566 15.8215 24.5358 15.6695 24.5358 15.5159C24.5358 15.3623 24.566 15.2102 24.6248 15.0683C24.6836 14.9264 24.7697 14.7975 24.8783 14.6889C24.9869 14.5803 25.1159 14.4941 25.2578 14.4354C25.3997 14.3766 25.5517 14.3463 25.7053 14.3463C26.3495 14.3463 26.8773 14.8705 26.8773 15.5146Z"
								fill="#00629B" />
							<circle cx="20.5" cy="20.5" r="19.5" stroke="#00629B" stroke-width="2" />
						</svg>