<svg width="28" height="30" viewBox="0 0 28 30" fill="none" xmlns="http://www.w3.org/2000/svg">
<path d="M26.8243 0.553467H1.11768C0.499464 0.553467 0 1.06409 0 1.69611V27.977C0 28.609 0.499464 29.1196 1.11768 29.1196H26.8243C27.4426 29.1196 27.942 28.609 27.942 27.977V1.69611C27.942 1.06409 27.4426 0.553467 26.8243 0.553467ZM8.2883 24.8954H4.1424V11.2622H8.2883V24.8954ZM6.2171 9.39826C5.74183 9.39826 5.27723 9.25418 4.88206 8.98424C4.48688 8.71429 4.17888 8.33061 3.997 7.88171C3.81513 7.43281 3.76754 6.93885 3.86026 6.4623C3.95298 5.98575 4.18184 5.54801 4.51791 5.20443C4.85398 4.86086 5.28216 4.62688 5.74829 4.53209C6.21443 4.4373 6.6976 4.48595 7.13669 4.67189C7.57579 4.85783 7.95108 5.17271 8.21513 5.57671C8.47918 5.98071 8.62011 6.45569 8.62011 6.94157C8.61662 8.29847 7.54085 9.39826 6.2171 9.39826ZM23.8101 24.8954H19.6677V18.2645C19.6677 16.6826 19.6397 14.6509 17.5127 14.6509C15.3576 14.6509 15.0258 16.372 15.0258 18.1502V24.8954H10.8869V11.2622H14.8617V13.1261H14.9175C15.4694 12.0549 16.8211 10.923 18.8399 10.923C23.0382 10.923 23.8101 13.7475 23.8101 17.4182V24.8954Z" fill="white"/>
</svg>
