<svg width="41" height="41" viewBox="0 0 41 41" fill="none" xmlns="http://www.w3.org/2000/svg">
							<path
								d="M13.0844 10.75C14.3718 10.75 15.4175 11.7798 15.4175 13.0476C15.4175 14.3163 14.3718 15.3465 13.0844 15.3465C11.7944 15.3465 10.75 14.3163 10.75 13.0476C10.75 11.7798 11.7944 10.75 13.0844 10.75ZM11.0707 17.0899H15.0966V29.8438H11.0707V17.0899Z"
								fill="#00629B" />
							<path
								d="M17.6215 17.0899H21.4834V18.8323H21.537C22.0743 17.8299 23.3875 16.7725 25.346 16.7725C29.4226 16.7725 30.1752 19.4139 30.1752 22.848V29.8438H26.1523V23.6416C26.1523 22.1618 26.1246 20.2595 24.0603 20.2595C21.9651 20.2595 21.6444 21.8708 21.6444 23.5344V29.8436H17.6215V17.0901"
								fill="#00629B" />
							<circle cx="20.5" cy="20.5" r="19.5" stroke="#00629B" stroke-width="2" />
						</svg>