<svg width="27" height="26" viewBox="0 0 27 26" fill="none" xmlns="http://www.w3.org/2000/svg">
<path d="M13.545 2.16669C7.4025 2.16669 2.39625 6.98752 2.39625 12.9025C2.39625 14.7984 2.91375 16.64 3.88125 18.265L2.30625 23.8334L8.2125 22.3384C9.84375 23.1942 11.6775 23.6492 13.545 23.6492C19.6875 23.6492 24.6938 18.8284 24.6938 12.9134C24.6938 10.0425 23.535 7.34502 21.4313 5.31919C20.3999 4.31594 19.1713 3.5205 17.8173 2.97925C16.4634 2.43799 15.011 2.16177 13.545 2.16669ZM13.5563 3.97586C16.0313 3.97586 18.3488 4.90752 20.1038 6.59752C20.9651 7.42666 21.6479 8.41137 22.1132 9.49518C22.5784 10.579 22.8169 11.7406 22.815 12.9134C22.815 17.8317 18.6525 21.8292 13.545 21.8292C11.88 21.8292 10.2488 21.4067 8.83125 20.5834L8.49375 20.3992L4.98375 21.2875L5.9175 17.9942L5.6925 17.6475C4.76318 16.2269 4.27164 14.5815 4.275 12.9025C4.28625 7.98419 8.4375 3.97586 13.5563 3.97586ZM9.59625 7.94086C9.41625 7.94086 9.1125 8.00586 8.85375 8.27669C8.60625 8.54752 7.875 9.20836 7.875 10.5192C7.875 11.8409 8.87625 13.1084 9 13.2925C9.1575 13.4767 10.98 16.185 13.7813 17.3334C14.445 17.6259 14.9625 17.7884 15.3675 17.9075C16.0313 18.1134 16.6388 18.0809 17.1225 18.0159C17.6625 17.94 18.765 17.3659 19.0013 16.7375C19.2375 16.1092 19.2375 15.5784 19.17 15.4592C19.0913 15.3509 18.9113 15.2859 18.63 15.1667C18.3488 15.015 16.9763 14.365 16.7288 14.2784C16.47 14.1917 16.3125 14.1484 16.0988 14.4084C15.9188 14.6792 15.3788 15.2859 15.2213 15.4592C15.0525 15.6434 14.895 15.665 14.625 15.535C14.3325 15.3942 13.4325 15.1125 12.375 14.2025C11.5425 13.4875 10.9913 12.61 10.8225 12.3392C10.6875 12.0792 10.8113 11.9167 10.9463 11.7975C11.07 11.6784 11.25 11.4834 11.3625 11.3209C11.5088 11.1692 11.5538 11.05 11.6438 10.8767C11.7338 10.6925 11.6888 10.5409 11.6213 10.4109C11.5538 10.2917 10.9913 8.94836 10.755 8.41752C10.53 7.89752 10.305 7.96252 10.125 7.95169C9.9675 7.95169 9.7875 7.94086 9.59625 7.94086Z" fill="#FDFDFD"/>
</svg>
