<svg width="27" height="27" viewBox="0 0 27 27" fill="none" xmlns="http://www.w3.org/2000/svg">
<path d="M24.302 6.17951C20.5141 -0.000204563 12.7804 -1.83742 6.78281 2.00403C0.943073 5.84548 -0.950896 14.1964 2.83704 20.3762L3.1527 20.8772L1.89006 25.8878L6.62498 24.5516L7.09847 24.8857C9.15027 26.0548 11.3599 26.7229 13.5695 26.7229C15.937 26.7229 18.3045 26.0548 20.3563 24.7187C26.196 20.7102 27.9321 12.5263 24.302 6.17951ZM20.9876 19.04C20.3563 20.0421 19.5671 20.7102 18.4623 20.8772C17.831 20.8772 17.0418 21.2113 13.8852 19.8751C11.2021 18.5389 8.99244 16.3677 7.41413 13.8624C6.46715 12.6933 5.99366 11.1901 5.83583 9.68692C5.83583 8.35077 6.30932 7.18163 7.09847 6.34653C7.41413 6.01249 7.7298 5.84548 8.04546 5.84548H8.83461C9.15027 5.84548 9.46593 5.84548 9.62376 6.51355C9.93943 7.34865 10.7286 9.35288 10.7286 9.5199C10.8864 9.68692 10.8864 10.021 10.7286 10.188C10.8864 10.522 10.7286 10.8561 10.5708 11.0231C10.4129 11.1901 10.2551 11.5241 10.0973 11.6912C9.7816 11.8582 9.62377 12.1922 9.7816 12.5263C10.4129 13.5284 11.2021 14.5305 11.9912 15.3656C12.9382 16.2007 13.8852 16.8688 14.99 17.3698C15.3057 17.5368 15.6213 17.5368 15.7792 17.2028C15.937 16.8688 16.7261 16.0337 17.0418 15.6996C17.3575 15.3656 17.5153 15.3656 17.831 15.5326L20.3563 16.8688C20.6719 17.0358 20.9876 17.2028 21.1454 17.3698C21.3032 17.8709 21.3032 18.5389 20.9876 19.04Z" fill="white"/>
</svg>
