<svg xmlns="http://www.w3.org/2000/svg" viewBox="0 0 187.09 54.54"><defs><style>.cls-1{fill:#006db7;}.cls-1,.cls-2{fill-rule:evenodd;}.cls-2{fill:#fff;}</style></defs><title>Asset 3</title><g id="Layer_2" data-name="Layer 2"><g id="Layer_1-2" data-name="Layer 1"><polygon class="cls-1" points="62.39 7.21 73.83 7.21 73.83 48.53 62.39 48.53 62.39 7.21 62.39 7.21"/><polygon class="cls-1" points="79.84 48.53 79.84 7.21 111.32 7.21 111.32 15.23 91.29 15.23 91.29 23.75 109.72 23.75 109.72 31.77 91.29 31.77 91.29 40.52 111.32 40.52 111.32 48.53 79.84 48.53 79.84 48.53"/><polygon class="cls-1" points="117.73 48.53 117.73 7.21 149.2 7.21 149.2 15.23 129.17 15.23 129.17 23.75 147.6 23.75 147.6 31.77 129.17 31.77 129.17 40.52 149.2 40.52 149.2 48.53 117.73 48.53 117.73 48.53"/><polygon class="cls-1" points="155.61 48.53 155.61 7.21 187.09 7.21 187.09 15.23 167.06 15.23 167.06 23.75 185.48 23.75 185.48 31.77 167.06 31.77 167.06 40.52 187.09 40.52 187.09 48.53 155.61 48.53 155.61 48.53"/><path class="cls-1" d="M31,3.51c1.7,2.15,3.49,4.41,5.32,6.45l4.54,4.74A91.34,91.34,0,0,0,54,25.57l.15,0a2.39,2.39,0,0,1,1.07,1.77c0,1.5-1.76,1.81-2.68,2.62A103.29,103.29,0,0,0,28.94,53.83l-.52.52a2.07,2.07,0,0,1-1.74,0c-.7-.23-.77-1-1.22-1.46-1.42-2.21-3.23-4.27-4.77-6.33-.92-.92-1.68-1.9-2.62-2.89A101.92,101.92,0,0,0,.67,28.55a1.73,1.73,0,0,1-.61-1.74c.19-.78,1.1-1.25,1.71-1.74A100.06,100.06,0,0,0,22.61,5.4L26.35.53A1.79,1.79,0,0,1,28.11.1,3.78,3.78,0,0,1,29,.58L31,3.51Z"/><path class="cls-2" d="M25.68,7.68c-1.75,1.25-3.41,2.53-5.08,4a2.91,2.91,0,0,0-.4.37A91.16,91.16,0,0,0,9.31,23.31,10.69,10.69,0,0,0,7.14,27a3.3,3.3,0,0,0,.5,2,65.1,65.1,0,0,0,9.7,11c3,2.7,5.94,5.67,9.41,7.48,1.14.53,2.42-.09,3.37-.76A84.46,84.46,0,0,0,43,34.94c1.84-2.26,3.94-4.33,5-6.91a3.23,3.23,0,0,0-.67-2.68,79.23,79.23,0,0,0-11-12.41l-.26-.15a53.87,53.87,0,0,0-4.76-4c-1.53-1.3-3.82-2.48-5.65-1.06Z"/><path class="cls-1" d="M26.35,8.79a79.5,79.5,0,0,0-15.86,15C9.58,25.11,8,26.39,8.7,28.18c.52,1.32,1.69,2.27,2.44,3.44a86.36,86.36,0,0,0,15,14.18c2.39,1.52,4.08-.94,5.94-2.07A99.82,99.82,0,0,0,42.72,33.57v-.09a42.49,42.49,0,0,0,3.78-4.93,2.83,2.83,0,0,0-.28-2.77A75.16,75.16,0,0,0,31.33,10.32c-1.44-1-3.11-2.79-5-1.53Z"/><path class="cls-2" d="M27.53,12.45,27,14.07l-2.53,7.26c.63.07,1.42,0,2,.07v.06l-.37,8.21.07.09a10.69,10.69,0,0,0,2.65,0v-.13l-.33-8,.05-.27,2.23,0c-1.12-2.94-2.2-5.91-3.24-8.88Z"/><path class="cls-2" d="M18.9,23.83c-1.42.71-3.51,1.79-3.29,3.74A4.14,4.14,0,0,0,18,29.76c5,2.22,11.74,2.3,17.06.64,1.32-.51,3.08-1.24,3.32-2.85,0-1.34-1.42-2.17-2.43-2.68v-.06a4.52,4.52,0,0,1,1.13-.31v0c-1.79-.31-3.52-.78-5.24-1.24.33.76.57,1.56.85,2.35a9.43,9.43,0,0,1,1.61-.37c.91.36,2.22.86,2.34,2s-1.06,1.59-1.8,2a20.86,20.86,0,0,1-12.37.48c-1.13-.35-2.75-.81-2.89-2.24.8-1.89,2.87-2.28,4.59-2.74-.89-.57-1.79-1.08-2.65-1.71a7.5,7.5,0,0,0-2.61.82Z"/><path class="cls-2" d="M26.11,32c-.15,2.92-.19,5.62-.4,8.55a16.23,16.23,0,0,0,3.69,0L29,32.44,29,32.05a21,21,0,0,1-2.85,0Z"/><path class="cls-1" d="M36.72,50.27v-.49H37c.16,0,.39,0,.39.22s-.11.27-.31.27Zm0,.35h.21l.47.87h.52l-.52-.9a.48.48,0,0,0,.49-.54c0-.47-.31-.63-.84-.63h-.77v2.07h.44v-.87ZM39,50.46A1.93,1.93,0,1,0,37,52.38,1.86,1.86,0,0,0,39,50.46Zm-.27,0a1.61,1.61,0,0,1-1.64,1.65h0a1.65,1.65,0,1,1,1.64-1.65Z"/></g></g></svg>