<svg xmlns="http://www.w3.org/2000/svg" viewBox="0 0 343.54 192.72"><defs><style>.cls-1,.cls-3{fill:#035b98;}.cls-2{fill:none;}.cls-3{fill-rule:evenodd;}</style></defs><title>Asset 3</title><g id="Layer_2" data-name="Layer 2"><g id="Layer_1-2" data-name="Layer 1"><path class="cls-1" d="M22.87,142.68c-1.36,0-2.31,0-3.63.07l-.21-.21c-.1-1.56-.13-2.68-.27-4.25l-.24-2.95c-.84,0-2.51,0-3.36,0H13.33c-.92,0-1.8,0-3.26,0l-1.32,2.55c-.82,1.56-1.36,2.68-2.14,4.25l-.14.3-.27.21c-1.29,0-2.21,0-3.53,0l-.14-.31c.61-1.15,9.78-17.38,13-23.56l.28-.14c1.76,0,3.46-.1,4.75-.1l.2.17c.14,2.85,1.4,15.72,2.35,23.73ZM17.54,121l-6.08,11.55c.85.06,1.56.06,2.31.06h2.31c.88,0,1.49,0,2.34-.06Z"/><path class="cls-1" d="M39.62,142.61c-1.19,0-2,0-3.2.1l-.13-.24.27-1.28a7.83,7.83,0,0,1-4.89,1.72c-4.07,0-6.42-3-6.42-6.78a12.67,12.67,0,0,1,1.8-6.18c2.86-4.52,7.34-5.1,10.77-5.1.85,0,1.46,0,2.3.1,1.19-5.53,1.43-6.72,1.67-8.42l.27-.24c1.36-.2,2.28-.37,3.63-.61l.17.21c-1.52,5.74-5.12,21.6-6,26.52Zm-.11-15a7.69,7.69,0,0,0-1.56-.11c-4.62,0-6.89,2-8.11,4.59a9.21,9.21,0,0,0-.85,3.63c0,2.51,1.39,4.52,4.21,4.52a6.28,6.28,0,0,0,3.87-1.7Z"/><path class="cls-1" d="M52,142.65c-1.46,0-2.47.06-3.93.13l-.31-.21c-.24-3.15-1.53-13.58-2-17.21l.21-.24c1.29,0,2.2-.06,3.46-.17l.24.21c.13,1.93.2,3.29.37,5.23l.81,9.47c5.74-11.14,6.49-12.56,7.51-14.67l.31-.13H60c.68,0,1.15,0,1.83,0l.17.24c-1,1.76-2.31,3.87-3.36,5.77l-2.85,5.13c-1.23,2.17-2.31,4.08-3.47,6.31Z"/><path class="cls-1" d="M75.31,142.68h-.88c-.86,0-1.47,0-2.31.07l-.17-.21.23-1.35a7.61,7.61,0,0,1-5,1.69c-4,0-6.28-3-6.28-6.62a12.55,12.55,0,0,1,1.6-5.74c2.82-5,7.84-5.53,11.41-5.53,1.6,0,5.06.07,5.06.07l.17.23c-2.75,12-3.19,13.92-3.63,17.18Zm-6.56-2.44a5.9,5.9,0,0,0,3.94-1.7c.85-3.47,1.53-7,2.45-10.94-.41,0-.92-.06-1.46-.06-3.26,0-6.56,1-8.25,5a8.92,8.92,0,0,0-.75,3.43A3.87,3.87,0,0,0,68.75,140.24Z"/><path class="cls-1" d="M94.94,142.68c-1.29,0-2.18,0-3.47.1l-.13-.24c.47-2.27,1-3.8,1.42-6l.82-3.88a13.24,13.24,0,0,0,.37-2.51,2.54,2.54,0,0,0-2.88-2.61,7.65,7.65,0,0,0-4.49,1.8c-1,4.38-1.93,8.76-2.75,13.17l-.24.21c-1.29,0-2.17,0-3.46.1l-.17-.24c1.12-4.48,3.26-13.92,3.57-17l.23-.23c1.33-.17,2.28-.34,3.6-.61l.18.23-.48,1.74a9.68,9.68,0,0,1,5.7-2.08c1,0,4.93.18,4.93,4.52a42.37,42.37,0,0,1-1.12,6.55l-.51,2.41c-.34,1.64-.65,2.75-.85,4.38Z"/><path class="cls-1" d="M112.22,142.14a10.19,10.19,0,0,1-4.38,1,7.26,7.26,0,0,1-7.4-7.61c0-2.82,1.22-7.2,5-9.47a10,10,0,0,1,4.95-1.37,8.94,8.94,0,0,1,5.27,1.37l.1.23a27.84,27.84,0,0,0-.85,2.69l-.34.1a4.53,4.53,0,0,0-3.84-1.7c-4.24,0-6.55,4.48-6.55,7.88a4.79,4.79,0,0,0,4.72,5.13,6.25,6.25,0,0,0,4.14-1.63l.27.13a31.38,31.38,0,0,0-.84,3.06Z"/><path class="cls-1" d="M118.64,142.65c-1.32,0-2.27,0-3.6.1l-.17-.21c1.09-3.93,3.5-15.14,3.67-17l.24-.23c1.39-.17,2.34-.31,3.7-.54l.17.23c-.17,0-3,12.9-3.77,17.45Zm4.86-22.39c-1.33.18-2.24.28-3.57.48l-.2-.27c.27-1.16.47-2,.71-3.12l.31-.24c1.32-.17,2.24-.27,3.53-.48l.27.24c-.31,1.12-.51,2-.78,3.12Z"/><path class="cls-1" d="M138.27,142.68c-1.29,0-2.17,0-3.46.1l-.14-.24c.48-2.27,1-3.8,1.43-6l.81-3.88a13.13,13.13,0,0,0,.38-2.51,2.54,2.54,0,0,0-2.89-2.61,7.65,7.65,0,0,0-4.48,1.8c-.95,4.38-1.94,8.76-2.75,13.17l-.24.21c-1.29,0-2.17,0-3.47.1l-.16-.24c1.12-4.48,3.25-13.92,3.56-17l.24-.23c1.32-.17,2.27-.34,3.6-.61l.17.23-.48,1.74a9.7,9.7,0,0,1,5.71-2.08c1,0,4.92.18,4.92,4.52a42.37,42.37,0,0,1-1.12,6.55l-.51,2.41c-.34,1.64-.64,2.75-.85,4.38Z"/><path class="cls-1" d="M162,125.22c-.95,3.84-1.8,7.34-2.61,11.17l-1,4.49c-1.19,5.64-2.17,10.39-9.61,10.39-2,0-5.09-.48-7-2.55v-.27c.51-.78.85-1.36,1.36-2.17h.27a6.35,6.35,0,0,0,5.13,2.41c5.06,0,5.47-4.69,5.84-5.84l.34-1.39a8.42,8.42,0,0,1-5,1.59c-4,0-6.11-3.05-6.11-6.59a12.44,12.44,0,0,1,1.93-6.51c3.2-4.93,8.29-4.93,12.19-4.93,1.7,0,4.08-.07,4.08-.07Zm-4.17,2.45-1.33,0c-3.05,0-6.35.54-8.22,4.51a9.28,9.28,0,0,0-.91,3.91c0,3.53,2.27,4.34,4,4.34a5.82,5.82,0,0,0,4-1.66Z"/><path class="cls-1" d="M180.75,142.68c-1.32,0-2.24,0-3.6.07l-.16-.21c.81-3.33,4.61-19.11,4.92-21-3.74,0-5.37.11-7,.14l-.17-.21c.3-1,.51-1.66.75-2.64l.27-.17c1.56,0,4,.07,6.08.07s8.92,0,11-.1l.18.2c-.28.88-.48,1.66-.76,2.64l-.23.18c-1.36-.11-3.36-.11-6.35-.14-.68,2.31-1,4-1.5,6.38l-1.73,7.75c-.51,2.3-1,4.48-1.42,6.85Z"/><path class="cls-1" d="M201.38,141.73a10.66,10.66,0,0,1-5.54,1.36c-5.8,0-7.88-3.46-7.88-7.38,0-5.94,3.64-11.07,9.51-11.07,4,0,6.86,1.84,6.86,6.36a13.84,13.84,0,0,1-.41,3.09l-.23.17c-1.77,0-5,0-7.95,0-1.53,0-2.65,0-4.18.07a11.16,11.16,0,0,0-.1,1.46c0,4.45,3.87,4.55,5.1,4.55a8.56,8.56,0,0,0,5.6-2l.27.18c-.37,1.12-.61,1.9-.88,3.05Zm-.44-9.88a8.78,8.78,0,0,0,.17-1.49,3.2,3.2,0,0,0-3.5-3.34c-3.91,0-5.23,3.6-5.6,4.86Z"/><path class="cls-1" d="M217.92,142.14a10.19,10.19,0,0,1-4.38,1,7.26,7.26,0,0,1-7.4-7.61c0-2.82,1.22-7.2,5-9.47a10,10,0,0,1,5-1.37,8.9,8.9,0,0,1,5.26,1.37l.11.23a25.31,25.31,0,0,0-.85,2.69l-.34.1a4.54,4.54,0,0,0-3.84-1.7c-4.25,0-6.55,4.48-6.55,7.88a4.79,4.79,0,0,0,4.72,5.13,6.24,6.24,0,0,0,4.13-1.63l.28.13a31.42,31.42,0,0,0-.85,3.06Z"/><path class="cls-1" d="M235.64,142.68c-1.29,0-2.2,0-3.46.07l-.17-.21c.3-1.22.68-2.68,1-3.9l1-4.28a34.57,34.57,0,0,0,.78-4.45,2.4,2.4,0,0,0-2.71-2.47,8.16,8.16,0,0,0-4.69,1.89l-1.36,6c-.54,2.38-1,4.65-1.42,7.06l-.24.21c-1.26,0-2.17,0-3.43.06l-.2-.2c.47-2.17,5.12-20.92,5.64-26l.27-.21c1.35-.2,2.34-.34,3.7-.61l.16.24c-.95,3.57-1.69,7.13-2.58,10.73a10.31,10.31,0,0,1,5.88-2c.88,0,4.69.21,4.69,4.29a19.86,19.86,0,0,1-.62,4.28l-.91,4.1c-.37,1.7-.71,3.47-1,5.16Z"/><path class="cls-1" d="M255.27,142.68c-1.28,0-2.17,0-3.46.1l-.14-.24c.48-2.27,1-3.8,1.43-6l.81-3.88a12.38,12.38,0,0,0,.38-2.51,2.54,2.54,0,0,0-2.89-2.61,7.65,7.65,0,0,0-4.48,1.8c-.95,4.38-1.94,8.76-2.75,13.17l-.24.21c-1.29,0-2.17,0-3.46.1l-.17-.24c1.12-4.48,3.25-13.92,3.56-17l.24-.23c1.32-.17,2.28-.34,3.6-.61l.17.23-.48,1.74a9.72,9.72,0,0,1,5.71-2.08c1,0,4.93.18,4.93,4.52a41.54,41.54,0,0,1-1.13,6.55l-.51,2.41c-.34,1.64-.64,2.75-.85,4.38Z"/><path class="cls-1" d="M270.15,124.64c4.21,0,7.26,2.15,7.26,6.67,0,3.56-1.63,11.78-9.64,11.78-2.14,0-7.07-.52-7.07-6.79C260.7,130.79,263.7,124.64,270.15,124.64Zm-2.31,15.93c5.13,0,6-8.28,6-9.44,0-3.29-2-4-3.54-4-4.68,0-6,7-6,9.4C264.31,138.71,265.33,140.57,267.84,140.57Z"/><path class="cls-1" d="M282.64,142.68c-1.25,0-2.17,0-3.45.1l-.14-.21c.5-2.74,4.14-17.62,5.33-26.07l.24-.24c1.39-.2,2.34-.37,3.73-.65l.17.21c-1.7,7.34-5.13,23.53-5.6,26.65Z"/><path class="cls-1" d="M297.38,124.64c4.21,0,7.27,2.15,7.27,6.67,0,3.56-1.63,11.78-9.65,11.78-2.14,0-7.06-.52-7.06-6.79C287.94,130.79,290.93,124.64,297.38,124.64Zm-2.31,15.93c5.13,0,6-8.28,6-9.44,0-3.29-2-4-3.53-4-4.69,0-6,7-6,9.4C291.54,138.71,292.56,140.57,295.07,140.57Z"/><path class="cls-1" d="M325.13,125.22c-.95,3.84-1.8,7.34-2.62,11.17l-.94,4.49c-1.19,5.64-2.18,10.39-9.62,10.39-2,0-5.09-.48-7-2.55v-.27c.51-.78.85-1.36,1.36-2.17h.27a6.33,6.33,0,0,0,5.12,2.41c5.06,0,5.48-4.69,5.85-5.84l.33-1.39a8.39,8.39,0,0,1-5,1.59c-4,0-6.12-3.05-6.12-6.59a12.48,12.48,0,0,1,1.94-6.51C311.92,125,317,125,320.92,125c1.69,0,4.07-.07,4.07-.07ZM321,127.67l-1.32,0c-3.06,0-6.35.54-8.22,4.51a9.18,9.18,0,0,0-.92,3.91c0,3.53,2.28,4.34,4,4.34a5.81,5.81,0,0,0,4-1.66Z"/><path class="cls-1" d="M343.54,125.26c-4.08,6.59-13.62,22.58-14.91,25.47l-.27.2h-1.53c-.68,0-1.33,0-2,0l-.1-.23c1-1.5,4.35-6.69,5.17-8.19-1.3-8.45-2.55-16.84-2.72-17.25l.23-.23c1.3,0,2.21-.07,3.54-.18l.27.18c.17,1.87.27,3.18.51,5l1,8,3.3-5.83c1.29-2.28,2.58-4.59,3.8-7l.27-.2a10.48,10.48,0,0,0,1.12,0c.81,0,1.4,0,2.18-.07Z"/><path class="cls-1" d="M128.93,184.44c-1.29,0-2.18.07-3.43.14l-.17-.21c1.19-5.53.51-2.27,3.29-15-.64,0-1.63,0-2.58,0l-.2-.2c.23-.85.41-1.43.61-2.28l.27-.24c.88.07,1.53.1,2.41.1l.51-2.44c.75-3.63,1.39-6.69,6.14-6.69a11,11,0,0,1,2.49.31l.17.27c-.24.85-.41,1.46-.62,2.3l-.27.21a6,6,0,0,0-1.32-.24c-2.14,0-2.48,1.4-3.09,4.11l-.48,2.17h.58c1,0,1.66,0,2.65,0l.17.27c-.24.68-.41,1.36-.65,2.18l-.27.23c-1.09,0-1.87-.07-3-.07-1.08,5.41-2.2,9.55-3,14.85Z"/><path class="cls-1" d="M144.75,166.41c4.21,0,7.27,2.14,7.27,6.65,0,3.57-1.63,11.79-9.65,11.79-2.13,0-7.06-.51-7.06-6.79C135.31,172.55,138.3,166.41,144.75,166.41Zm-2.31,15.92c5.13,0,6-8.28,6-9.44,0-3.29-2-4-3.53-4-4.69,0-6,7-6,9.4C138.91,180.47,139.93,182.33,142.44,182.33Z"/><path class="cls-1" d="M157.08,184.44c-1.33,0-2.24,0-3.53.07l-.17-.21c1.43-5.33,3.36-14.09,3.7-17l.24-.23c1.36-.17,2.34-.31,3.67-.58l.17.24c-.28,1-.48,1.86-.75,3,.51-.84,2-3.36,4.41-3.36a3,3,0,0,1,1.57.38l.1.3c-.51,1.22-.85,2.08-1.33,3.33l-.34.11a2.47,2.47,0,0,0-1.42-.49c-.92,0-3,.49-4.08,4.9-.31,1.29-1.66,7.13-2,9.3Z"/><path class="cls-1" d="M194,184.41c-1,0-2.31.07-3.67.07l-.13-.18c1-4.21,1.73-7.16,2.64-11.41-1.28,0-2.2,0-3.46,0h-3.56c-1.49,0-2.55,0-4.08.1-.91,3.74-1.63,7.54-2.41,11.28l-.24.2c-1.36,0-2.31,0-3.63.07l-.17-.24c.38-1.53,4.55-19.39,5.3-23.63l.24-.21c1.35,0,2.3,0,3.63-.07l.17.2c-1,4.08-.89,3.44-2.21,9.48.14,0,1.39,0,2.31,0,3,0,6.45,0,8.76-.11,1.19-5.43,1.6-7.43,2-9.33l.23-.21c1.37,0,2.32,0,3.68-.07l.13.2c-2.14,9.17-4.48,19.43-5.27,23.64Z"/><path class="cls-1" d="M213.72,184.41c-1.22,0-2.1.07-3.32.13l-.18-.24.41-1.63a8.7,8.7,0,0,1-5.53,2.11c-4.15,0-5.06-2.82-5.06-4.65a24.84,24.84,0,0,1,.88-5.2l.72-3.16c.33-1.49.61-2.54,1-4.68l.24-.24c1.25,0,2.13-.07,3.39-.14l.17.21c-1.25,5.16-2.64,10.55-2.64,12.09a2.62,2.62,0,0,0,2.91,2.92,6.72,6.72,0,0,0,4.52-2c1.77-7.94,2.55-11.78,2.72-12.86l.26-.21c1.26,0,2.15-.1,3.44-.17l.13.24c-1,4-3.46,14.94-3.8,17.25Z"/><path class="cls-1" d="M243.41,184.44c-1.22,0-2.11,0-3.33.07l-.2-.24c.5-2,1-4,1.45-6.05l.61-2.61a21.2,21.2,0,0,0,.68-4,2.25,2.25,0,0,0-2.54-2.35,7.29,7.29,0,0,0-4.55,1.87,30.93,30.93,0,0,1-.72,4.45l-.77,3.57c-.38,1.73-.72,3.32-1,5.06l-.24.2c-1.26,0-2.14,0-3.4.07l-.17-.27c.54-2.08,2.62-10.43,2.62-12.53a2.31,2.31,0,0,0-2.55-2.42,6.8,6.8,0,0,0-4.11,1.81l-1.12,5.06c-.65,3-1.12,5.05-1.63,8.08l-.24.17c-1.29,0-2.17,0-3.43.1l-.2-.24c1.32-5,3.29-14.16,3.63-17l.2-.2c1.36-.17,2.31-.34,3.61-.58l.2.24-.44,1.73a9.46,9.46,0,0,1,5.81-2.07,3.79,3.79,0,0,1,3.69,2.48,10.63,10.63,0,0,1,6.42-2.48c2.48,0,4.62,1.36,4.62,4.14a18.18,18.18,0,0,1-.57,3.77l-.58,2.58c-.61,2.68-.92,4.61-1.5,7.34Z"/><path class="cls-1" d="M263.07,184.44h-.88c-.85,0-1.46,0-2.31.07l-.17-.21.23-1.36a7.51,7.51,0,0,1-4.95,1.7c-4,0-6.29-3-6.29-6.62a12.51,12.51,0,0,1,1.6-5.74c2.82-5,7.85-5.53,11.41-5.53,1.6,0,5.06.06,5.06.06l.17.24c-2.75,12-3.19,13.92-3.63,17.19ZM256.52,182a5.86,5.86,0,0,0,3.93-1.7c.85-3.46,1.53-7,2.45-10.93-.41,0-.92-.07-1.46-.07-3.26,0-6.55,1-8.25,5.06a9.12,9.12,0,0,0-.75,3.43A3.87,3.87,0,0,0,256.52,182Z"/><path class="cls-1" d="M282.7,184.44c-1.29,0-2.17,0-3.46.1l-.14-.24c.47-2.27.95-3.8,1.43-6l.81-3.87a13.38,13.38,0,0,0,.38-2.52,2.54,2.54,0,0,0-2.89-2.61,7.78,7.78,0,0,0-4.49,1.8c-.95,4.38-1.93,8.76-2.75,13.18l-.23.2c-1.29,0-2.17,0-3.47.1l-.16-.24c1.11-4.48,3.25-13.92,3.56-17l.24-.23c1.32-.17,2.27-.34,3.6-.61l.16.23-.47,1.73a9.72,9.72,0,0,1,5.71-2.07c1,0,4.92.18,4.92,4.52a42.63,42.63,0,0,1-1.12,6.56l-.51,2.4c-.34,1.64-.64,2.76-.84,4.39Z"/><path class="cls-1" d="M291,184.41c-1.32,0-2.28,0-3.6.1l-.17-.21c1.09-3.94,3.5-15.14,3.67-17l.24-.23c1.39-.17,2.34-.31,3.7-.54l.17.23c-.17,0-3,12.9-3.77,17.46ZM295.88,162c-1.33.18-2.24.28-3.57.48l-.2-.27c.27-1.16.48-2,.71-3.12l.31-.24c1.32-.17,2.24-.27,3.53-.47l.27.23c-.3,1.12-.51,2-.78,3.12Z"/><path class="cls-1" d="M303.08,184.37a10.72,10.72,0,0,1-2.45.31c-3.23,0-4-1.66-4-3.37a55.87,55.87,0,0,1,1.7-8.39l.85-3.53h-.68c-.65,0-1.12,0-1.77,0l-.17-.24c.24-.78.41-1.39.62-2.24l.23-.17c.89,0,1.46,0,2.34,0,.41-1.56.62-2.68.92-4.24l.24-.24c1.32-.27,2.24-.51,3.53-.85l.17.21c-.27.91-.44,1.59-.68,2.51l-.64,2.61c1.39,0,2.34,0,3.7-.06l.17.23c-.31.82-.48,1.43-.72,2.25l-.23.2c-1.29,0-2.21,0-3.5,0l-1.83,7.68a24.76,24.76,0,0,0-.65,3.46c0,1.09.78,1.46,1.66,1.46a5.9,5.9,0,0,0,2-.44l.17.17c-.27.89-.48,1.5-.72,2.38Z"/><path class="cls-1" d="M323.8,167c-4.07,6.59-13.61,22.58-14.9,25.47l-.27.2H307.1c-.68,0-1.32,0-2,0l-.1-.23c1-1.5,4.35-6.69,5.16-8.19-1.28-8.45-2.54-16.84-2.71-17.25l.24-.24c1.29,0,2.21-.06,3.53-.17l.27.17c.17,1.88.27,3.19.51,5l1,8,3.29-5.84c1.29-2.27,2.58-4.58,3.8-7l.27-.2c.38,0,.75,0,1.12,0,.82,0,1.4,0,2.18-.06Z"/><polygon class="cls-1" points="114.55 89.11 114.55 13.25 135.56 13.25 135.56 89.11 114.55 89.11 114.55 89.11"/><polygon class="cls-1" points="146.59 89.11 146.59 13.25 204.38 13.25 204.38 27.96 167.6 27.96 167.6 43.61 201.44 43.61 201.44 58.32 167.6 58.32 167.6 74.4 204.38 74.4 204.38 89.11 146.59 89.11 146.59 89.11"/><polygon class="cls-1" points="216.15 89.11 216.15 13.25 273.93 13.25 273.93 27.96 237.16 27.96 237.16 43.61 270.98 43.61 270.98 58.32 237.16 58.32 237.16 74.4 273.93 74.4 273.93 89.11 216.15 89.11 216.15 89.11"/><polygon class="cls-1" points="285.69 89.11 285.69 13.25 343.49 13.25 343.49 27.96 306.72 27.96 306.72 43.61 340.54 43.61 340.54 58.32 306.72 58.32 306.72 74.4 343.49 74.4 343.49 89.11 285.69 89.11 285.69 89.11"/><rect class="cls-2" width="343.49" height="100.13"/><path class="cls-1" d="M66.75,23.76A145.11,145.11,0,0,1,86.86,46.55c.93,1.42,1.74,3,1.23,4.91C86.19,56.21,82.32,60,79,64.15,71.64,72,63.93,79.63,55.3,85.7c-1.75,1.23-4.1,2.37-6.19,1.4-6.36-3.33-11.71-8.78-17.27-13.74A119.61,119.61,0,0,1,14,53.14a6,6,0,0,1-.91-3.64c.63-2.51,2.35-4.58,4-6.7a165.35,165.35,0,0,1,20-20.71,4.84,4.84,0,0,1,.73-.68c3.07-2.65,6.12-5,9.33-7.31h0c3.35-2.61,7.56-.44,10.38,2M57,6.44S53.39,1.2,53.18,1.07A5.68,5.68,0,0,0,51.62.18a3.77,3.77,0,0,0-2.39.36,3.37,3.37,0,0,0-1.32,1.05L41.52,9.91C30.51,23.55,17.47,36.28,3.25,46c-1.12.88-2.8,1.74-3.14,3.19a3.18,3.18,0,0,0,1.11,3.18,187.09,187.09,0,0,1,32,27.78c1.72,1.81,3.11,3.6,4.79,5.3,2.84,3.77,6.17,7.57,8.77,11.62.82.85,1,2.25,2.24,2.67a3.82,3.82,0,0,0,3.19,0l.94-1A175.7,175.7,0,0,1,94.56,56.5c1.67-1.49,6.89-4.14,6.89-6.28a4.4,4.4,0,0,0-2-3.23l-3.37-2.21c-8.59-5.84-13.51-10.29-21-17.79l-8.33-8.7C63.37,14.54,60.09,10.4,57,6.44Zm-8.59,9.71c3.43-2.33,6.5.93,9.15,2.8,10.27,8.25,20,17.71,27.33,28.39a5.2,5.2,0,0,1,.51,5.07,76.46,76.46,0,0,1-6.94,9.06v.16c-6.1,6.5-12.54,13.17-19.5,18.67-3.4,2.07-6.52,6.59-10.9,3.79A157.48,157.48,0,0,1,20.45,58c-1.37-2.13-3.51-3.88-4.47-6.3-1.33-3.28,1.61-5.64,3.28-8.1A145.51,145.51,0,0,1,48.38,16.15Zm2.16,6.7-.92,3L45,39.17c1.16.12,2.61,0,3.75.12v.11L48,54.48l.12.16a19.37,19.37,0,0,0,4.87,0v-.23l-.61-14.64.09-.49,4.1-.07q-3.08-8.1-5.94-16.32ZM34.7,43.75c-2.61,1.31-6.45,3.29-6,6.87.56,2,2.68,3.22,4.35,4,9.26,4.08,21.56,4.22,31.34,1.18,2.41-.94,5.65-2.29,6.09-5.24,0-2.45-2.61-4-4.47-4.92v-.12A8.45,8.45,0,0,1,68.05,45v-.07c-3.28-.58-6.44-1.44-9.61-2.28C59.05,44,59.49,45.5,60,47a16.78,16.78,0,0,1,3-.68c1.67.65,4.06,1.58,4.3,3.67s-2,2.91-3.3,3.71a38.37,38.37,0,0,1-22.73.88c-2.06-.65-5-1.49-5.3-4.12,1.47-3.46,5.26-4.19,8.43-5-1.63-1-3.29-2-4.86-3.14a14,14,0,0,0-4.8,1.51Zm13.24,15c-.28,5.36-.35,10.32-.74,15.69a30,30,0,0,0,6.77,0l-.67-15-.12-.72a35.44,35.44,0,0,1-5.24-.05Z"/><path class="cls-3" d="M67.71,89.43A3.53,3.53,0,1,0,71.24,93,3.41,3.41,0,0,0,67.71,89.43Zm0,6.24h0a2.71,2.71,0,0,1,0-5.41,2.72,2.72,0,0,1,0,5.42Zm1.58-3.47c0-.87-.58-1.14-1.56-1.14H66.31v3.79h.81V93.26h.39l.87,1.59h1l-1-1.66A.89.89,0,0,0,69.29,92.2Zm-1.44.41h-.73v-.92h.58c.31,0,.73,0,.73.43S68.21,92.61,67.85,92.61Z"/></g></g></svg>